<?xml version="1.0" encoding="UTF-8" standalone="no"?>
<!-- Created with Inkscape (http://www.inkscape.org/) -->

<svg
   height="1000"
   width="1000"
   sodipodi:docname="fontSize10.svg"
   version="1.1"
   id="svg1092"
   viewBox="100 0 1000 1000"
   inkscape:version="1.1.2 (0a00cf5339, 2022-02-04)"
   xmlns:inkscape="http://www.inkscape.org/namespaces/inkscape"
   xmlns:sodipodi="http://sodipodi.sourceforge.net/DTD/sodipodi-0.dtd"
   xmlns="http://www.w3.org/2000/svg"
   xmlns:svg="http://www.w3.org/2000/svg"
   xmlns:rdf="http://www.w3.org/1999/02/22-rdf-syntax-ns#"
   xmlns:cc="http://creativecommons.org/ns#"
   xmlns:dc="http://purl.org/dc/elements/1.1/">
  <sodipodi:namedview
     id="base"
     pagecolor="#ffffff"
     bordercolor="#666666"
     borderopacity="1.0"
     inkscape:pageopacity="0.0"
     inkscape:pageshadow="2"
     inkscape:zoom="0.70710678"
     inkscape:cx="748.11898"
     inkscape:cy="499.9245"
     inkscape:document-units="px"
     inkscape:current-layer="layer1"
     showgrid="true"
     showguides="true"
     inkscape:window-width="1920"
     inkscape:window-height="968"
     inkscape:window-x="1280"
     inkscape:window-y="27"
     inkscape:window-maximized="1"
     showborder="true"
     inkscape:showpageshadow="false"
     inkscape:pagecheckerboard="0">
    <inkscape:grid
       type="xygrid"
       id="grid1968"
       spacingx="100"
       spacingy="100"
       empspacing="1" />
  </sodipodi:namedview>
  <metadata
     id="metadata7">
    <rdf:RDF>
      <cc:Work
         rdf:about="">
        <dc:format>image/svg+xml</dc:format>
        <dc:type
           rdf:resource="http://purl.org/dc/dcmitype/StillImage" />
      </cc:Work>
    </rdf:RDF>
  </metadata>
  <g
     id="layer1"
     inkscape:label="Layer 1"
     inkscape:groupmode="layer">
     <!--  
    <path
       id="path199"
       style="display:none;fill:#000000;fill-opacity:0.5"
       d="M 200,100 V 200 H 300 400 500 V 100 H 400 300 Z M 500,200 V 300 400 H 400 300 200 V 300 200 H 100 V 300 400 500 600 700 800 H 200 V 700 600 500 H 300 400 500 V 600 700 800 H 600 V 700 600 500 400 300 200 Z"
       inkscape:label="A"
       sodipodi:insensitive="true" />
     
    <path
       id="path3158"
       style="display:none;fill:#030059;fill-opacity:0.5"
       d="M 100,100 V 200 H 200 V 100 Z M 200,200 V 300 H 300 V 200 Z m 100,0 H 400 V 100 H 300 Z m 100,0 V 300 H 500 V 200 Z m 100,0 H 600 V 100 H 500 Z m 0,100 V 400 H 600 V 300 Z m 0,100 H 400 v 100 h 100 z m 0,100 V 600 H 600 V 500 Z m 0,100 H 400 v 100 h 100 z m 0,100 V 800 H 600 V 700 Z m -100,0 H 300 v 100 h 100 z m -100,0 V 600 H 200 v 100 z m -100,0 H 100 v 100 h 100 z m 0,-100 V 500 H 100 v 100 z m 0,-100 H 300 V 400 H 200 Z m 0,-100 V 300 H 100 v 100 z m 100,0 H 400 V 300 H 300 Z m 0,100 V 600 H 400 V 500 Z"
       inkscape:label="Missing"
       sodipodi:insensitive="true" />
    <path
       id="path239"
       style="display:none;fill:#030059;fill-opacity:0.5"
       d="M 100,100 V 200 300 400 500 600 700 800 H 200 300 400 500 V 700 H 400 300 200 V 600 500 H 300 400 500 V 400 H 400 300 200 V 300 200 H 300 400 500 V 100 H 400 300 200 Z M 500,200 V 300 400 H 600 V 300 200 Z m 0,300 V 600 700 H 600 V 600 500 Z"
       inkscape:label="B"
       sodipodi:insensitive="true" />
    <path
       style="font-variation-settings:normal;display:none;opacity:1;vector-effect:none;fill:#b5c9ff;fill-opacity:1;stroke:none;stroke-width:0.999999px;stroke-linecap:butt;stroke-linejoin:miter;stroke-miterlimit:4;stroke-dasharray:none;stroke-dashoffset:0;stroke-opacity:1;-inkscape-stroke:none;stop-color:#000000;stop-opacity:1"
       d="M 500,100 V 200 H 200 V 700 H 500 V 800 H 200 V 700 H 100 V 200 H 200 V 100"
       id="path372"
       inkscape:label="C"
       sodipodi:insensitive="true"
       sodipodi:nodetypes="cccccccccccc" />
    <path
       style="font-variation-settings:normal;display:none;opacity:1;vector-effect:none;fill:#b5c9ff;fill-opacity:1;stroke:none;stroke-width:0.999999px;stroke-linecap:butt;stroke-linejoin:miter;stroke-miterlimit:4;stroke-dasharray:none;stroke-dashoffset:0;stroke-opacity:1;-inkscape-stroke:none;stop-color:#000000;stop-opacity:1"
       d="M 100,100 H 500 V 200 H 200 V 700 H 500 V 200 H 600 V 700 H 500 V 800 H 100"
       id="path847"
       inkscape:label="D"
       sodipodi:insensitive="true" />
    <path
       style="font-variation-settings:normal;display:none;opacity:1;vector-effect:none;fill:#b5c9ff;fill-opacity:1;stroke:none;stroke-width:0.999999px;stroke-linecap:butt;stroke-linejoin:miter;stroke-miterlimit:4;stroke-dasharray:none;stroke-dashoffset:0;stroke-opacity:1;-inkscape-stroke:none;stop-color:#000000;stop-opacity:1"
       d="M 500,100 H 100 V 800 H 500 V 700 H 200 V 500 H 400 V 400 H 200 V 200 H 500 V 100"
       id="path995"
       inkscape:label="E"
       sodipodi:nodetypes="ccccccccccccc"
       sodipodi:insensitive="true" />
    <path
       style="font-variation-settings:normal;display:none;opacity:1;vector-effect:none;fill:#b5c9ff;fill-opacity:1;stroke:none;stroke-width:0.999999px;stroke-linecap:butt;stroke-linejoin:miter;stroke-miterlimit:4;stroke-dasharray:none;stroke-dashoffset:0;stroke-opacity:1;-inkscape-stroke:none;stop-color:#000000;stop-opacity:1"
       d="M 100,100 H 500 V 200 H 200 V 400 H 400 V 500 H 200 V 800 H 100"
       id="path997"
       inkscape:label="F"
       sodipodi:nodetypes="cccccccccc"
       sodipodi:insensitive="true" />
    <path
       style="font-variation-settings:normal;display:none;opacity:1;vector-effect:none;fill:#b5c9ff;fill-opacity:1;stroke:none;stroke-width:0.999999px;stroke-linecap:butt;stroke-linejoin:miter;stroke-miterlimit:4;stroke-dasharray:none;stroke-dashoffset:0;stroke-opacity:1;-inkscape-stroke:none;stop-color:#000000;stop-opacity:1"
       d="M 600,100 H 200 V 200 H 100 V 700 H 200 V 800 H 500 V 700 H 600 V 400 H 400 V 500 H 500 V 700 H 200 V 200 h 400"
       id="path999"
       inkscape:label="G"
       sodipodi:nodetypes="cccccccccccccccccc"
       sodipodi:insensitive="true" />
    <path
       style="font-variation-settings:normal;display:none;opacity:1;vector-effect:none;fill:#b5c9ff;fill-opacity:1;stroke:none;stroke-width:0.999999px;stroke-linecap:butt;stroke-linejoin:miter;stroke-miterlimit:4;stroke-dasharray:none;stroke-dashoffset:0;stroke-opacity:1;-inkscape-stroke:none;stop-color:#000000;stop-opacity:1"
       d="M 100,100 V 800 H 200 V 500 H 500 V 800 H 600 V 100 H 500 V 400 H 200 V 100 H 100"
       id="path1001"
       inkscape:label="H"
       sodipodi:insensitive="true" />
    <path
       style="font-variation-settings:normal;display:none;opacity:1;vector-effect:none;fill:#b5c9ff;fill-opacity:1;stroke:none;stroke-width:0.999999px;stroke-linecap:butt;stroke-linejoin:miter;stroke-miterlimit:4;stroke-dasharray:none;stroke-dashoffset:0;stroke-opacity:1;-inkscape-stroke:none;stop-color:#000000;stop-opacity:1"
       d="M 100,100 H 400 V 200 H 300 V 700 H 400 V 800 H 100 V 700 H 200 V 200 H 100"
       id="path1003"
       inkscape:label="I"
       sodipodi:nodetypes="cccccccccccc"
       sodipodi:insensitive="true" />
    <path
       style="font-variation-settings:normal;display:none;opacity:1;vector-effect:none;fill:#b5c9ff;fill-opacity:1;stroke:none;stroke-width:0.999999px;stroke-linecap:butt;stroke-linejoin:miter;stroke-miterlimit:4;stroke-dasharray:none;stroke-dashoffset:0;stroke-opacity:1;-inkscape-stroke:none;stop-color:#000000;stop-opacity:1"
       d="M 300,100 H 600 V 200 H 500 V 700 H 400 V 800 H 200 V 700 H 100 V 600 H 200 V 700 H 400 V 200 H 300"
       id="path1005"
       inkscape:label="J"
       sodipodi:nodetypes="cccccccccccccccc"
       sodipodi:insensitive="true" />
    <path
       style="font-variation-settings:normal;display:none;opacity:1;vector-effect:none;fill:#b5c9ff;fill-opacity:1;stroke:none;stroke-width:0.999999px;stroke-linecap:butt;stroke-linejoin:miter;stroke-miterlimit:4;stroke-dasharray:none;stroke-dashoffset:0;stroke-opacity:1;-inkscape-stroke:none;stop-color:#000000;stop-opacity:1"
       d="M 100,100 H 200 V 400 H 300 V 300 H 400 V 100 H 500 V 300 H 400 V 400 H 300 V 500 H 400 V 600 H 500 V 800 H 400 V 600 H 300 V 500 H 200 V 800 H 100"
       id="path1007"
       inkscape:label="K"
       sodipodi:insensitive="true" />
    <path
       style="font-variation-settings:normal;display:none;opacity:1;vector-effect:none;fill:#b5c9ff;fill-opacity:1;stroke:none;stroke-width:0.999999px;stroke-linecap:butt;stroke-linejoin:miter;stroke-miterlimit:4;stroke-dasharray:none;stroke-dashoffset:0;stroke-opacity:1;-inkscape-stroke:none;stop-color:#000000;stop-opacity:1"
       d="M 100,100 V 800 H 500 V 700 H 200 V 100 H 100"
       id="path1009"
       inkscape:label="L"
       sodipodi:insensitive="true" />
    <path
       style="font-variation-settings:normal;display:none;opacity:1;vector-effect:none;fill:#b5c9ff;fill-opacity:1;stroke:none;stroke-width:0.999999px;stroke-linecap:butt;stroke-linejoin:miter;stroke-miterlimit:4;stroke-dasharray:none;stroke-dashoffset:0;stroke-opacity:1;-inkscape-stroke:none;stop-color:#000000;stop-opacity:1"
       d="M 100,800 V 100 H 200 V 200 H 300 V 300 H 400 V 400 H 500 V 300 H 600 V 200 H 700 V 100 H 800 V 800 H 700 V 300 H 600 V 400 H 500 V 600 H 400 V 400 H 300 V 300 H 200 v 500"
       id="path1275"
       inkscape:label="M"
       sodipodi:insensitive="true" />
    <path
       style="font-variation-settings:normal;display:none;opacity:1;vector-effect:none;fill:#b5c9ff;fill-opacity:1;stroke:none;stroke-width:0.999999px;stroke-linecap:butt;stroke-linejoin:miter;stroke-miterlimit:4;stroke-dasharray:none;stroke-dashoffset:0;stroke-opacity:1;-inkscape-stroke:none;stop-color:#000000;stop-opacity:1"
       d="M 100,800 V 100 H 200 V 200 H 300 V 300 H 400 V 500 H 500 V 100 H 600 V 800 H 500 V 700 H 400 V 500 H 300 V 300 H 200 v 500"
       id="path1390"
       inkscape:label="N"
       sodipodi:insensitive="true" />
    <path
       style="font-variation-settings:normal;display:none;opacity:1;vector-effect:none;fill:#b5c9ff;fill-opacity:1;stroke:none;stroke-width:0.999999px;stroke-linecap:butt;stroke-linejoin:miter;stroke-miterlimit:4;stroke-dasharray:none;stroke-dashoffset:0;stroke-opacity:1;-inkscape-stroke:none;stop-color:#000000;stop-opacity:1"
       d="M 200,100 H 500 V 200 H 600 V 700 H 500 V 800 H 200 V 700 H 500 V 200 H 200 V 700 H 100 V 200 h 100"
       id="path4628"
       inkscape:label="O"
       sodipodi:insensitive="true" />
    <path
       style="font-variation-settings:normal;display:none;opacity:1;vector-effect:none;fill:#b5c9ff;fill-opacity:1;stroke:none;stroke-width:0.999999px;stroke-linecap:butt;stroke-linejoin:miter;stroke-miterlimit:4;stroke-dasharray:none;stroke-dashoffset:0;stroke-opacity:1;-inkscape-stroke:none;stop-color:#000000;stop-opacity:1"
       d="M 100,100 H 500 V 200 H 600 V 400 H 500 V 200 H 200 V 400 H 500 V 500 H 200 V 800 H 100"
       id="path4630"
       inkscape:label="P"
       sodipodi:insensitive="true" />
    <path
       style="font-variation-settings:normal;display:none;opacity:1;vector-effect:none;fill:#b5c9ff;fill-opacity:1;stroke:none;stroke-width:0.999999px;stroke-linecap:butt;stroke-linejoin:miter;stroke-miterlimit:4;stroke-dasharray:none;stroke-dashoffset:0;stroke-opacity:1;-inkscape-stroke:none;stop-color:#000000;stop-opacity:1"
       d="M 200,100 H 500 V 200 H 600 V 600 H 500 V 200 H 200 V 700 H 400 V 600 H 500 V 700 H 600 V 800 H 500 V 700 H 400 V 800 H 200 V 700 H 100 V 200 h 100"
       id="path4665"
       inkscape:label="Q"
       sodipodi:insensitive="true" />
    <path
       style="font-variation-settings:normal;display:none;opacity:1;vector-effect:none;fill:#b5c9ff;fill-opacity:1;stroke:none;stroke-width:0.999999px;stroke-linecap:butt;stroke-linejoin:miter;stroke-miterlimit:4;stroke-dasharray:none;stroke-dashoffset:0;stroke-opacity:1;-inkscape-stroke:none;stop-color:#000000;stop-opacity:1"
       d="M 100,100 H 500 V 200 H 600 V 400 H 500 V 200 H 200 V 400 H 500 V 500 H 600 V 800 H 500 V 500 H 200 V 800 H 100"
       id="path4667"
       inkscape:label="R"
       sodipodi:insensitive="true" />
    <path
       style="font-variation-settings:normal;display:none;opacity:1;vector-effect:none;fill:#b5c9ff;fill-opacity:1;stroke:none;stroke-width:0.999999px;stroke-linecap:butt;stroke-linejoin:miter;stroke-miterlimit:4;stroke-dasharray:none;stroke-dashoffset:0;stroke-opacity:1;-inkscape-stroke:none;stop-color:#000000;stop-opacity:1"
       d="M 600,100 V 200 H 200 V 400 H 500 V 500 H 600 V 700 H 500 V 800 H 100 V 700 H 500 V 500 H 200 V 400 H 100 V 200 H 200 V 100"
       id="path4669"
       inkscape:label="S"
       sodipodi:insensitive="true" />
    <path
       style="font-variation-settings:normal;display:none;opacity:1;vector-effect:none;fill:#b5c9ff;fill-opacity:1;stroke:none;stroke-width:0.999999px;stroke-linecap:butt;stroke-linejoin:miter;stroke-miterlimit:4;stroke-dasharray:none;stroke-dashoffset:0;stroke-opacity:1;-inkscape-stroke:none;stop-color:#000000;stop-opacity:1"
       d="M 100,100 H 600 V 200 H 400 V 800 H 300 V 200 H 100"
       id="path4671"
       inkscape:label="T"
       sodipodi:insensitive="true" />
    <path
       style="font-variation-settings:normal;display:none;opacity:1;vector-effect:none;fill:#b5c9ff;fill-opacity:1;stroke:none;stroke-width:0.999999px;stroke-linecap:butt;stroke-linejoin:miter;stroke-miterlimit:4;stroke-dasharray:none;stroke-dashoffset:0;stroke-opacity:1;-inkscape-stroke:none;stop-color:#000000;stop-opacity:1"
       d="M 100,100 V 700 H 200 V 800 H 500 V 700 H 600 V 100 H 500 V 700 H 200 V 100"
       id="path4673"
       inkscape:label="U"
       sodipodi:insensitive="true" />
     -->
    <path
       style="font-variation-settings:normal;display:none;opacity:1;vector-effect:none;fill:#b5c9ff;fill-opacity:1;stroke:none;stroke-width:0.999999px;stroke-linecap:butt;stroke-linejoin:miter;stroke-miterlimit:4;stroke-dasharray:none;stroke-dashoffset:0;stroke-opacity:1;-inkscape-stroke:none;stop-color:#000000;stop-opacity:1"
       d="M 100,100 V 400 H 200 V 600 H 300 V 800 H 400 V 600 H 500 V 400 H 600 V 100 H 500 V 400 H 400 V 600 H 300 V 400 H 200 V 100"
       id="path4708"
       inkscape:label="V"
       sodipodi:insensitive="true" />
       <!--  
    <path
       style="font-variation-settings:normal;display:none;opacity:1;vector-effect:none;fill:#b5c9ff;fill-opacity:1;stroke:none;stroke-width:0.999999px;stroke-linecap:butt;stroke-linejoin:miter;stroke-miterlimit:4;stroke-dasharray:none;stroke-dashoffset:0;stroke-opacity:1;-inkscape-stroke:none;stop-color:#000000;stop-opacity:1"
       d="M 100,100 H 200 V 700 H 400 V 400 H 500 V 700 H 700 V 100 H 800 V 700 H 700 V 800 H 500 V 700 H 400 V 800 H 200 V 700 H 100"
       id="path4743"
       inkscape:label="W"
       sodipodi:insensitive="true" />
    <path
       style="font-variation-settings:normal;display:none;opacity:1;vector-effect:none;fill:#b5c9ff;fill-opacity:1;stroke:none;stroke-width:0.999999px;stroke-linecap:butt;stroke-linejoin:miter;stroke-miterlimit:4;stroke-dasharray:none;stroke-dashoffset:0;stroke-opacity:1;-inkscape-stroke:none;stop-color:#000000;stop-opacity:1"
       d="M 100,100 H 200 V 300 H 300 V 400 H 400 V 300 H 500 V 100 H 600 V 300 H 500 V 400 H 400 V 500 H 500 V 600 H 600 V 800 H 500 V 600 H 400 V 500 H 300 V 600 H 200 V 800 H 100 V 600 H 200 V 500 H 300 V 400 H 200 V 300 H 100"
       id="path4745"
       inkscape:label="X"
       sodipodi:insensitive="true" />
    <path
       style="font-variation-settings:normal;display:none;opacity:1;vector-effect:none;fill:#b5c9ff;fill-opacity:1;stroke:none;stroke-width:0.999999px;stroke-linecap:butt;stroke-linejoin:miter;stroke-miterlimit:4;stroke-dasharray:none;stroke-dashoffset:0;stroke-opacity:1;-inkscape-stroke:none;stop-color:#000000;stop-opacity:1"
       d="M 100,100 H 200 V 400 H 300 V 500 H 400 V 400 H 500 V 100 H 600 V 400 H 500 V 500 H 400 V 800 H 300 V 500 H 200 V 400 H 100"
       id="path4747"
       sodipodi:nodetypes="cccccccccccccccccccc"
       inkscape:label="Y"
       sodipodi:insensitive="true" />
    <path
       style="font-variation-settings:normal;display:none;opacity:1;vector-effect:none;fill:#b5c9ff;fill-opacity:1;stroke:none;stroke-width:0.999999px;stroke-linecap:butt;stroke-linejoin:miter;stroke-miterlimit:4;stroke-dasharray:none;stroke-dashoffset:0;stroke-opacity:1;-inkscape-stroke:none;stop-color:#000000;stop-opacity:1"
       d="M 100,100 H 600 V 300 H 500 V 400 H 400 V 500 H 300 V 600 H 200 V 700 H 600 V 800 H 100 V 600 H 200 V 500 H 300 V 400 H 400 V 300 H 500 V 200 H 100"
       id="path4991"
       inkscape:label="Z"
       sodipodi:insensitive="true" />
       -->
  </g>

</svg>
